<svg width="500" height="500" viewBox="0 0 500 500" fill="#0f51f5" xmlns="http://www.w3.org/2000/svg">
<path d="M380 0H120C53.7258 0 0 53.7258 0 120V380C0 446.274 53.7258 500 120 500H380C446.274 500 500 446.274 500 380V120C500 53.7258 446.274 0 380 0ZM100 220V130C100 113.431 113.431 100 130 100H220C236.569 100 250 113.431 250 130V220C250 236.569 263.431 250 280 250H370C386.569 250 400 263.431 400 280V370C400 386.569 386.569 400 370 400H280C263.431 400 250 386.569 250 370V280C250 263.431 236.569 250 220 250H130C113.431 250 100 236.569 100 220Z" />
</svg>
